<svg xmlns="http://www.w3.org/2000/svg" xmlns:xlink="http://www.w3.org/1999/xlink" width="128" zoomAndPan="magnify" viewBox="0 0 96 95.999999" height="128" preserveAspectRatio="xMidYMid meet" version="1.0"><defs><g/><clipPath id="79f5a1c0bb"><path d="M 64.441406 45.582031 L 93.355469 45.582031 L 93.355469 58.410156 L 64.441406 58.410156 Z M 64.441406 45.582031 " clip-rule="nonzero"/></clipPath><clipPath id="aa6228c216"><path d="M 93.355469 51.996094 C 93.355469 55.535156 90.484375 58.410156 86.941406 58.410156 L 70.898438 58.410156 C 67.355469 58.410156 64.484375 55.535156 64.484375 51.996094 C 64.484375 48.453125 67.355469 45.582031 70.898438 45.582031 L 86.941406 45.582031 C 90.484375 45.582031 93.355469 48.453125 93.355469 51.996094 Z M 93.355469 51.996094 " clip-rule="nonzero"/></clipPath><clipPath id="f73849fb8c"><path d="M 0.441406 0.582031 L 29.355469 0.582031 L 29.355469 13.410156 L 0.441406 13.410156 Z M 0.441406 0.582031 " clip-rule="nonzero"/></clipPath><clipPath id="1c255a08dd"><path d="M 29.355469 6.996094 C 29.355469 10.535156 26.484375 13.410156 22.941406 13.410156 L 6.898438 13.410156 C 3.355469 13.410156 0.484375 10.535156 0.484375 6.996094 C 0.484375 3.453125 3.355469 0.582031 6.898438 0.582031 L 22.941406 0.582031 C 26.484375 0.582031 29.355469 3.453125 29.355469 6.996094 Z M 29.355469 6.996094 " clip-rule="nonzero"/></clipPath><clipPath id="71ae301980"><rect x="0" width="30" y="0" height="14"/></clipPath><clipPath id="6fae115f42"><path d="M 0.308594 39.339844 L 93.359375 39.339844 L 93.359375 43.832031 L 0.308594 43.832031 Z M 0.308594 39.339844 " clip-rule="nonzero"/></clipPath><clipPath id="34b2142b57"><path d="M 93.359375 41.585938 C 93.359375 42.824219 92.355469 43.832031 91.117188 43.832031 L 2.574219 43.832031 C 1.332031 43.832031 0.328125 42.824219 0.328125 41.585938 C 0.328125 40.34375 1.332031 39.339844 2.574219 39.339844 L 91.117188 39.339844 C 92.355469 39.339844 93.359375 40.34375 93.359375 41.585938 Z M 93.359375 41.585938 " clip-rule="nonzero"/></clipPath><clipPath id="4bf160f4c8"><path d="M 0.308594 0.339844 L 93.359375 0.339844 L 93.359375 4.832031 L 0.308594 4.832031 Z M 0.308594 0.339844 " clip-rule="nonzero"/></clipPath><clipPath id="f6690bc705"><path d="M 93.359375 2.585938 C 93.359375 3.824219 92.355469 4.832031 91.117188 4.832031 L 2.574219 4.832031 C 1.332031 4.832031 0.328125 3.824219 0.328125 2.585938 C 0.328125 1.34375 1.332031 0.339844 2.574219 0.339844 L 91.117188 0.339844 C 92.355469 0.339844 93.359375 1.34375 93.359375 2.585938 Z M 93.359375 2.585938 " clip-rule="nonzero"/></clipPath><clipPath id="02469ff99d"><rect x="0" width="94" y="0" height="5"/></clipPath><clipPath id="d0c0a8ce77"><path d="M 3 45 L 89 45 L 89 58.441406 L 3 58.441406 Z M 3 45 " clip-rule="nonzero"/></clipPath><clipPath id="9cf15508ca"><rect x="0" width="86" y="0" height="14"/></clipPath><clipPath id="0dac57a53a"><path d="M 31 0.601562 L 65 0.601562 L 65 46 L 31 46 Z M 31 0.601562 " clip-rule="nonzero"/></clipPath><clipPath id="643b57b6c7"><rect x="0" width="34" y="0" height="46"/></clipPath><clipPath id="3a0493ff88"><rect x="0" width="34" y="0" height="46"/></clipPath><clipPath id="673cc2c02d"><path d="M 1 0.601562 L 36 0.601562 L 36 46 L 1 46 Z M 1 0.601562 " clip-rule="nonzero"/></clipPath><clipPath id="235672c3c9"><rect x="0" width="35" y="0" height="46"/></clipPath><clipPath id="8ba2f84520"><rect x="0" width="94" y="0" height="59"/></clipPath></defs><g transform="matrix(1, 0, 0, 1, 1, 15)"><g clip-path="url(#8ba2f84520)"><g clip-path="url(#79f5a1c0bb)"><g clip-path="url(#aa6228c216)"><g transform="matrix(1, 0, 0, 1, 64, 45)"><g clip-path="url(#71ae301980)"><g clip-path="url(#f73849fb8c)"><g clip-path="url(#1c255a08dd)"><path fill="#fdff66" d="M 29.355469 0.582031 L 29.355469 13.410156 L 0.492188 13.410156 L 0.492188 0.582031 Z M 29.355469 0.582031 " fill-opacity="1" fill-rule="nonzero"/></g></g></g></g></g></g><g clip-path="url(#6fae115f42)"><g clip-path="url(#34b2142b57)"><g transform="matrix(1, 0, 0, 1, 0.000000000000000111, 39)"><g clip-path="url(#02469ff99d)"><g clip-path="url(#4bf160f4c8)"><g clip-path="url(#f6690bc705)"><path fill="#fdff66" d="M 93.359375 0.339844 L 93.359375 4.832031 L 0.328125 4.832031 L 0.328125 0.339844 Z M 93.359375 0.339844 " fill-opacity="1" fill-rule="nonzero"/></g></g></g></g></g></g><g clip-path="url(#d0c0a8ce77)"><g transform="matrix(1, 0, 0, 1, 3, 45)"><g clip-path="url(#9cf15508ca)"><g fill="#ffffff" fill-opacity="1"><g transform="translate(0.317621, 9.73207)"><g><path d="M 0.703125 0 L 0.703125 -5.859375 L 3.3125 -5.859375 C 3.914062 -5.859375 4.390625 -5.710938 4.734375 -5.421875 C 5.085938 -5.140625 5.265625 -4.757812 5.265625 -4.28125 C 5.265625 -4.007812 5.203125 -3.757812 5.078125 -3.53125 C 4.960938 -3.3125 4.789062 -3.140625 4.5625 -3.015625 C 4.84375 -2.890625 5.054688 -2.707031 5.203125 -2.46875 C 5.359375 -2.226562 5.4375 -1.953125 5.4375 -1.640625 C 5.4375 -1.304688 5.351562 -1.015625 5.1875 -0.765625 C 5.019531 -0.523438 4.785156 -0.335938 4.484375 -0.203125 C 4.191406 -0.0664062 3.847656 0 3.453125 0 Z M 2.015625 -1.046875 L 3.25 -1.046875 C 3.507812 -1.046875 3.710938 -1.109375 3.859375 -1.234375 C 4.003906 -1.359375 4.078125 -1.53125 4.078125 -1.75 C 4.078125 -1.976562 4.003906 -2.148438 3.859375 -2.265625 C 3.710938 -2.390625 3.507812 -2.453125 3.25 -2.453125 L 2.015625 -2.453125 Z M 2.015625 -3.46875 L 3.125 -3.46875 C 3.375 -3.46875 3.566406 -3.523438 3.703125 -3.640625 C 3.835938 -3.753906 3.90625 -3.921875 3.90625 -4.140625 C 3.90625 -4.347656 3.835938 -4.507812 3.703125 -4.625 C 3.566406 -4.738281 3.375 -4.796875 3.125 -4.796875 L 2.015625 -4.796875 Z M 2.015625 -3.46875 "/></g></g></g><g fill="#ffffff" fill-opacity="1"><g transform="translate(6.072566, 9.73207)"><g><path d="M 2.375 0.109375 C 1.8125 0.109375 1.363281 -0.0664062 1.03125 -0.421875 C 0.707031 -0.785156 0.546875 -1.269531 0.546875 -1.875 L 0.546875 -4.390625 L 1.828125 -4.390625 L 1.828125 -2 C 1.828125 -1.675781 1.898438 -1.425781 2.046875 -1.25 C 2.203125 -1.070312 2.414062 -0.984375 2.6875 -0.984375 C 2.976562 -0.984375 3.207031 -1.082031 3.375 -1.28125 C 3.550781 -1.476562 3.640625 -1.75 3.640625 -2.09375 L 3.640625 -4.390625 L 4.90625 -4.390625 L 4.90625 0 L 3.96875 0 L 3.828125 -0.5 C 3.648438 -0.289062 3.4375 -0.132812 3.1875 -0.03125 C 2.9375 0.0625 2.664062 0.109375 2.375 0.109375 Z M 2.375 0.109375 "/></g></g></g><g fill="#ffffff" fill-opacity="1"><g transform="translate(11.610348, 9.73207)"><g><path d="M 0.640625 0 L 0.640625 -4.390625 L 1.90625 -4.390625 L 1.90625 0 Z M 0.453125 -5.8125 C 0.453125 -6.039062 0.523438 -6.226562 0.671875 -6.375 C 0.828125 -6.53125 1.023438 -6.609375 1.265625 -6.609375 C 1.515625 -6.609375 1.710938 -6.53125 1.859375 -6.375 C 2.015625 -6.226562 2.09375 -6.039062 2.09375 -5.8125 C 2.09375 -5.570312 2.015625 -5.378906 1.859375 -5.234375 C 1.710938 -5.085938 1.515625 -5.015625 1.265625 -5.015625 C 1.023438 -5.015625 0.828125 -5.085938 0.671875 -5.234375 C 0.523438 -5.378906 0.453125 -5.570312 0.453125 -5.8125 Z M 0.453125 -5.8125 "/></g></g></g><g fill="#ffffff" fill-opacity="1"><g transform="translate(14.149543, 9.73207)"><g><path d="M 0.640625 0 L 0.640625 -6.1875 L 1.90625 -6.1875 L 1.90625 0 Z M 0.640625 0 "/></g></g></g><g fill="#ffffff" fill-opacity="1"><g transform="translate(16.688737, 9.73207)"><g><path d="M 2.5625 0.109375 C 2.125 0.109375 1.738281 0.015625 1.40625 -0.171875 C 1.070312 -0.367188 0.804688 -0.640625 0.609375 -0.984375 C 0.421875 -1.335938 0.328125 -1.742188 0.328125 -2.203125 C 0.328125 -2.648438 0.421875 -3.046875 0.609375 -3.390625 C 0.804688 -3.734375 1.070312 -4.003906 1.40625 -4.203125 C 1.738281 -4.398438 2.125 -4.5 2.5625 -4.5 C 2.832031 -4.5 3.082031 -4.457031 3.3125 -4.375 C 3.550781 -4.300781 3.765625 -4.191406 3.953125 -4.046875 L 3.953125 -6.1875 L 5.21875 -6.1875 L 5.21875 0 L 4.28125 0 L 4.125 -0.5 C 3.9375 -0.300781 3.707031 -0.148438 3.4375 -0.046875 C 3.164062 0.0546875 2.875 0.109375 2.5625 0.109375 Z M 1.578125 -2.203125 C 1.578125 -1.835938 1.6875 -1.539062 1.90625 -1.3125 C 2.132812 -1.09375 2.429688 -0.984375 2.796875 -0.984375 C 3.148438 -0.984375 3.4375 -1.09375 3.65625 -1.3125 C 3.882812 -1.539062 4 -1.835938 4 -2.203125 C 4 -2.554688 3.882812 -2.847656 3.65625 -3.078125 C 3.4375 -3.304688 3.148438 -3.421875 2.796875 -3.421875 C 2.429688 -3.421875 2.132812 -3.304688 1.90625 -3.078125 C 1.6875 -2.847656 1.578125 -2.554688 1.578125 -2.203125 Z M 1.578125 -2.203125 "/></g></g></g><g fill="#ffffff" fill-opacity="1"><g transform="translate(22.543922, 9.73207)"><g><path d="M 0.640625 0 L 0.640625 -4.390625 L 1.90625 -4.390625 L 1.90625 0 Z M 0.453125 -5.8125 C 0.453125 -6.039062 0.523438 -6.226562 0.671875 -6.375 C 0.828125 -6.53125 1.023438 -6.609375 1.265625 -6.609375 C 1.515625 -6.609375 1.710938 -6.53125 1.859375 -6.375 C 2.015625 -6.226562 2.09375 -6.039062 2.09375 -5.8125 C 2.09375 -5.570312 2.015625 -5.378906 1.859375 -5.234375 C 1.710938 -5.085938 1.515625 -5.015625 1.265625 -5.015625 C 1.023438 -5.015625 0.828125 -5.085938 0.671875 -5.234375 C 0.523438 -5.378906 0.453125 -5.570312 0.453125 -5.8125 Z M 0.453125 -5.8125 "/></g></g></g><g fill="#ffffff" fill-opacity="1"><g transform="translate(25.083116, 9.73207)"><g><path d="M 0.640625 0 L 0.640625 -4.390625 L 1.578125 -4.390625 L 1.71875 -3.890625 C 1.894531 -4.097656 2.109375 -4.25 2.359375 -4.34375 C 2.609375 -4.445312 2.878906 -4.5 3.171875 -4.5 C 3.742188 -4.5 4.191406 -4.320312 4.515625 -3.96875 C 4.847656 -3.613281 5.015625 -3.132812 5.015625 -2.53125 L 5.015625 0 L 3.75 0 L 3.75 -2.390625 C 3.75 -2.710938 3.671875 -2.960938 3.515625 -3.140625 C 3.359375 -3.328125 3.144531 -3.421875 2.875 -3.421875 C 2.582031 -3.421875 2.347656 -3.316406 2.171875 -3.109375 C 1.992188 -2.910156 1.90625 -2.640625 1.90625 -2.296875 L 1.90625 0 Z M 0.640625 0 "/></g></g></g><g fill="#ffffff" fill-opacity="1"><g transform="translate(30.645952, 9.73207)"><g><path d="M 2.78125 1.859375 C 2.144531 1.859375 1.625 1.710938 1.21875 1.421875 C 0.820312 1.128906 0.597656 0.726562 0.546875 0.21875 L 1.78125 0.21875 C 1.820312 0.414062 1.925781 0.566406 2.09375 0.671875 C 2.269531 0.773438 2.488281 0.828125 2.75 0.828125 C 3.445312 0.828125 3.796875 0.46875 3.796875 -0.25 L 3.796875 -0.546875 C 3.617188 -0.410156 3.414062 -0.300781 3.1875 -0.21875 C 2.957031 -0.144531 2.710938 -0.109375 2.453125 -0.109375 C 2.035156 -0.109375 1.664062 -0.203125 1.34375 -0.390625 C 1.03125 -0.578125 0.78125 -0.835938 0.59375 -1.171875 C 0.414062 -1.503906 0.328125 -1.882812 0.328125 -2.3125 C 0.328125 -2.738281 0.414062 -3.117188 0.59375 -3.453125 C 0.78125 -3.785156 1.03125 -4.039062 1.34375 -4.21875 C 1.664062 -4.40625 2.035156 -4.5 2.453125 -4.5 C 2.765625 -4.5 3.050781 -4.445312 3.3125 -4.34375 C 3.582031 -4.25 3.8125 -4.101562 4 -3.90625 L 4.125 -4.390625 L 5.078125 -4.390625 L 5.078125 -0.25 C 5.078125 0.1875 4.984375 0.5625 4.796875 0.875 C 4.609375 1.195312 4.34375 1.441406 4 1.609375 C 3.65625 1.773438 3.25 1.859375 2.78125 1.859375 Z M 1.578125 -2.3125 C 1.578125 -1.976562 1.679688 -1.703125 1.890625 -1.484375 C 2.109375 -1.273438 2.382812 -1.171875 2.71875 -1.171875 C 3.050781 -1.171875 3.320312 -1.273438 3.53125 -1.484375 C 3.75 -1.703125 3.859375 -1.976562 3.859375 -2.3125 C 3.859375 -2.644531 3.75 -2.914062 3.53125 -3.125 C 3.320312 -3.34375 3.050781 -3.453125 2.71875 -3.453125 C 2.382812 -3.453125 2.109375 -3.34375 1.890625 -3.125 C 1.679688 -2.914062 1.578125 -2.644531 1.578125 -2.3125 Z M 1.578125 -2.3125 "/></g></g></g><g fill="#ffffff" fill-opacity="1"><g transform="translate(36.359137, 9.73207)"><g/></g></g><g fill="#ffffff" fill-opacity="1"><g transform="translate(38.138242, 9.73207)"><g><path d="M 1.96875 0 L 0.078125 -5.859375 L 1.5 -5.859375 L 2.0625 -4.078125 L 2.671875 -2.140625 L 3.34375 -4.078125 L 3.96875 -5.859375 L 5.234375 -5.859375 L 5.859375 -4.078125 L 6.53125 -2.125 L 7.15625 -4.078125 L 7.71875 -5.859375 L 9.125 -5.859375 L 7.234375 0 L 5.9375 0 L 4.609375 -3.78125 L 3.28125 0 Z M 1.96875 0 "/></g></g></g><g fill="#ffffff" fill-opacity="1"><g transform="translate(47.175765, 9.73207)"><g><path d="M 0.640625 0 L 0.640625 -4.390625 L 1.90625 -4.390625 L 1.90625 0 Z M 0.453125 -5.8125 C 0.453125 -6.039062 0.523438 -6.226562 0.671875 -6.375 C 0.828125 -6.53125 1.023438 -6.609375 1.265625 -6.609375 C 1.515625 -6.609375 1.710938 -6.53125 1.859375 -6.375 C 2.015625 -6.226562 2.09375 -6.039062 2.09375 -5.8125 C 2.09375 -5.570312 2.015625 -5.378906 1.859375 -5.234375 C 1.710938 -5.085938 1.515625 -5.015625 1.265625 -5.015625 C 1.023438 -5.015625 0.828125 -5.085938 0.671875 -5.234375 C 0.523438 -5.378906 0.453125 -5.570312 0.453125 -5.8125 Z M 0.453125 -5.8125 "/></g></g></g><g fill="#ffffff" fill-opacity="1"><g transform="translate(49.714959, 9.73207)"><g><path d="M 2.75 0 C 2.195312 0 1.769531 -0.140625 1.46875 -0.421875 C 1.164062 -0.710938 1.015625 -1.125 1.015625 -1.65625 L 1.015625 -3.359375 L 0.171875 -3.359375 L 0.171875 -4.390625 L 0.5625 -4.390625 C 0.800781 -4.390625 0.960938 -4.425781 1.046875 -4.5 C 1.128906 -4.582031 1.191406 -4.734375 1.234375 -4.953125 L 1.296875 -5.53125 L 2.296875 -5.53125 L 2.296875 -4.390625 L 3.5 -4.390625 L 3.5 -3.359375 L 2.296875 -3.359375 L 2.296875 -1.859375 C 2.296875 -1.359375 2.539062 -1.109375 3.03125 -1.109375 L 3.546875 -1.109375 L 3.546875 0 Z M 2.75 0 "/></g></g></g><g fill="#ffffff" fill-opacity="1"><g transform="translate(53.615626, 9.73207)"><g><path d="M 0.640625 0 L 0.640625 -6.1875 L 1.90625 -6.1875 L 1.90625 -4.046875 C 2.070312 -4.203125 2.265625 -4.316406 2.484375 -4.390625 C 2.710938 -4.460938 2.945312 -4.5 3.1875 -4.5 C 3.757812 -4.5 4.207031 -4.320312 4.53125 -3.96875 C 4.851562 -3.625 5.015625 -3.144531 5.015625 -2.53125 L 5.015625 0 L 3.75 0 L 3.75 -2.40625 C 3.75 -2.726562 3.671875 -2.976562 3.515625 -3.15625 C 3.359375 -3.332031 3.144531 -3.421875 2.875 -3.421875 C 2.582031 -3.421875 2.347656 -3.320312 2.171875 -3.125 C 1.992188 -2.925781 1.90625 -2.65625 1.90625 -2.3125 L 1.90625 0 Z M 0.640625 0 "/></g></g></g><g fill="#ffffff" fill-opacity="1"><g transform="translate(59.187904, 9.73207)"><g/></g></g><g fill="#ffffff" fill-opacity="1"><g transform="translate(61.15077, 9.73207)"><g/></g></g><g fill="#ffffff" fill-opacity="1"><g transform="translate(63.113636, 9.73207)"><g/></g></g><g fill="#000000" fill-opacity="1"><g transform="translate(65.082546, 9.73207)"><g><path d="M 0.703125 0 L 0.703125 -5.859375 L 3.015625 -5.859375 C 3.640625 -5.859375 4.179688 -5.734375 4.640625 -5.484375 C 5.097656 -5.234375 5.457031 -4.890625 5.71875 -4.453125 C 5.976562 -4.015625 6.109375 -3.503906 6.109375 -2.921875 C 6.109375 -2.335938 5.976562 -1.828125 5.71875 -1.390625 C 5.457031 -0.953125 5.097656 -0.609375 4.640625 -0.359375 C 4.179688 -0.117188 3.640625 0 3.015625 0 Z M 2.03125 -1.21875 L 3 -1.21875 C 3.34375 -1.21875 3.644531 -1.285156 3.90625 -1.421875 C 4.164062 -1.566406 4.367188 -1.769531 4.515625 -2.03125 C 4.660156 -2.289062 4.734375 -2.585938 4.734375 -2.921875 C 4.734375 -3.265625 4.660156 -3.5625 4.515625 -3.8125 C 4.367188 -4.070312 4.160156 -4.269531 3.890625 -4.40625 C 3.628906 -4.550781 3.320312 -4.625 2.96875 -4.625 L 2.03125 -4.625 Z M 2.03125 -1.21875 "/></g></g></g><g fill="#000000" fill-opacity="1"><g transform="translate(71.430537, 9.73207)"><g><path d="M 2.09375 0.078125 C 1.582031 0.078125 1.175781 -0.0390625 0.875 -0.28125 C 0.570312 -0.519531 0.421875 -0.851562 0.421875 -1.28125 C 0.421875 -1.6875 0.554688 -2.007812 0.828125 -2.25 C 1.097656 -2.488281 1.460938 -2.609375 1.921875 -2.609375 L 3.5 -2.609375 L 3.5 -2.8125 C 3.5 -3.03125 3.421875 -3.203125 3.265625 -3.328125 C 3.109375 -3.460938 2.90625 -3.53125 2.65625 -3.53125 C 2.445312 -3.53125 2.269531 -3.484375 2.125 -3.390625 C 1.988281 -3.296875 1.898438 -3.171875 1.859375 -3.015625 L 0.640625 -3.015625 C 0.710938 -3.492188 0.925781 -3.859375 1.28125 -4.109375 C 1.632812 -4.367188 2.09375 -4.5 2.65625 -4.5 C 3.3125 -4.5 3.820312 -4.332031 4.1875 -4 C 4.5625 -3.675781 4.75 -3.222656 4.75 -2.640625 L 4.75 0 L 3.796875 0 L 3.65625 -0.515625 C 3.269531 -0.117188 2.75 0.078125 2.09375 0.078125 Z M 1.671875 -1.328125 C 1.671875 -1.179688 1.734375 -1.0625 1.859375 -0.96875 C 1.992188 -0.875 2.171875 -0.828125 2.390625 -0.828125 C 2.710938 -0.828125 2.976562 -0.914062 3.1875 -1.09375 C 3.394531 -1.28125 3.503906 -1.523438 3.515625 -1.828125 L 2.3125 -1.828125 C 2.113281 -1.828125 1.957031 -1.78125 1.84375 -1.6875 C 1.726562 -1.601562 1.671875 -1.484375 1.671875 -1.328125 Z M 1.671875 -1.328125 "/></g></g></g><g fill="#000000" fill-opacity="1"><g transform="translate(76.600806, 9.73207)"><g><path d="M 2.75 0 C 2.195312 0 1.769531 -0.140625 1.46875 -0.421875 C 1.164062 -0.710938 1.015625 -1.125 1.015625 -1.65625 L 1.015625 -3.359375 L 0.171875 -3.359375 L 0.171875 -4.390625 L 0.5625 -4.390625 C 0.800781 -4.390625 0.960938 -4.425781 1.046875 -4.5 C 1.128906 -4.582031 1.191406 -4.734375 1.234375 -4.953125 L 1.296875 -5.53125 L 2.296875 -5.53125 L 2.296875 -4.390625 L 3.5 -4.390625 L 3.5 -3.359375 L 2.296875 -3.359375 L 2.296875 -1.859375 C 2.296875 -1.359375 2.539062 -1.109375 3.03125 -1.109375 L 3.546875 -1.109375 L 3.546875 0 Z M 2.75 0 "/></g></g></g><g fill="#000000" fill-opacity="1"><g transform="translate(80.367831, 9.73207)"><g><path d="M 2.09375 0.078125 C 1.582031 0.078125 1.175781 -0.0390625 0.875 -0.28125 C 0.570312 -0.519531 0.421875 -0.851562 0.421875 -1.28125 C 0.421875 -1.6875 0.554688 -2.007812 0.828125 -2.25 C 1.097656 -2.488281 1.460938 -2.609375 1.921875 -2.609375 L 3.5 -2.609375 L 3.5 -2.8125 C 3.5 -3.03125 3.421875 -3.203125 3.265625 -3.328125 C 3.109375 -3.460938 2.90625 -3.53125 2.65625 -3.53125 C 2.445312 -3.53125 2.269531 -3.484375 2.125 -3.390625 C 1.988281 -3.296875 1.898438 -3.171875 1.859375 -3.015625 L 0.640625 -3.015625 C 0.710938 -3.492188 0.925781 -3.859375 1.28125 -4.109375 C 1.632812 -4.367188 2.09375 -4.5 2.65625 -4.5 C 3.3125 -4.5 3.820312 -4.332031 4.1875 -4 C 4.5625 -3.675781 4.75 -3.222656 4.75 -2.640625 L 4.75 0 L 3.796875 0 L 3.65625 -0.515625 C 3.269531 -0.117188 2.75 0.078125 2.09375 0.078125 Z M 1.671875 -1.328125 C 1.671875 -1.179688 1.734375 -1.0625 1.859375 -0.96875 C 1.992188 -0.875 2.171875 -0.828125 2.390625 -0.828125 C 2.710938 -0.828125 2.976562 -0.914062 3.1875 -1.09375 C 3.394531 -1.28125 3.503906 -1.523438 3.515625 -1.828125 L 2.3125 -1.828125 C 2.113281 -1.828125 1.957031 -1.78125 1.84375 -1.6875 C 1.726562 -1.601562 1.671875 -1.484375 1.671875 -1.328125 Z M 1.671875 -1.328125 "/></g></g></g></g></g></g><g clip-path="url(#0dac57a53a)"><g transform="matrix(1, 0, 0, 1, 31, -0.000000000000007105)"><g clip-path="url(#643b57b6c7)"><g fill="#ffffff" fill-opacity="1"><g transform="translate(0.804904, 35.99892)"><g><path d="M 16.578125 -28.859375 C 20.785156 -28.859375 24.109375 -27.804688 26.546875 -25.703125 C 28.992188 -23.609375 30.21875 -20.609375 30.21875 -16.703125 L 21.53125 -16.703125 C 21.53125 -18.347656 21.09375 -19.648438 20.21875 -20.609375 C 19.351562 -21.578125 18.125 -22.0625 16.53125 -22.0625 C 14.6875 -22.0625 13.332031 -21.484375 12.46875 -20.328125 C 11.601562 -19.171875 11.171875 -17.5625 11.171875 -15.5 L 11.171875 -12.859375 C 11.171875 -10.828125 11.601562 -9.226562 12.46875 -8.0625 C 13.332031 -6.894531 14.660156 -6.3125 16.453125 -6.3125 C 18.210938 -6.3125 19.546875 -6.765625 20.453125 -7.671875 C 21.359375 -8.578125 21.8125 -9.851562 21.8125 -11.5 L 30.21875 -11.5 C 30.21875 -7.625 29.03125 -4.65625 26.65625 -2.59375 C 24.28125 -0.53125 20.921875 0.5 16.578125 0.5 C 11.734375 0.5 8.066406 -0.734375 5.578125 -3.203125 C 3.097656 -5.679688 1.859375 -9.34375 1.859375 -14.1875 C 1.859375 -19.019531 3.097656 -22.671875 5.578125 -25.140625 C 8.066406 -27.617188 11.734375 -28.859375 16.578125 -28.859375 Z M 16.578125 -28.859375 "/></g></g></g></g></g></g><g transform="matrix(1, 0, 0, 1, 59, 1)"><g clip-path="url(#3a0493ff88)"><g fill="#ffffff" fill-opacity="1"><g transform="translate(1.68065, 35.630541)"><g><path d="M 16.578125 -28.859375 C 20.785156 -28.859375 24.109375 -27.804688 26.546875 -25.703125 C 28.992188 -23.609375 30.21875 -20.609375 30.21875 -16.703125 L 21.53125 -16.703125 C 21.53125 -18.347656 21.09375 -19.648438 20.21875 -20.609375 C 19.351562 -21.578125 18.125 -22.0625 16.53125 -22.0625 C 14.6875 -22.0625 13.332031 -21.484375 12.46875 -20.328125 C 11.601562 -19.171875 11.171875 -17.5625 11.171875 -15.5 L 11.171875 -12.859375 C 11.171875 -10.828125 11.601562 -9.226562 12.46875 -8.0625 C 13.332031 -6.894531 14.660156 -6.3125 16.453125 -6.3125 C 18.210938 -6.3125 19.546875 -6.765625 20.453125 -7.671875 C 21.359375 -8.578125 21.8125 -9.851562 21.8125 -11.5 L 30.21875 -11.5 C 30.21875 -7.625 29.03125 -4.65625 26.65625 -2.59375 C 24.28125 -0.53125 20.921875 0.5 16.578125 0.5 C 11.734375 0.5 8.066406 -0.734375 5.578125 -3.203125 C 3.097656 -5.679688 1.859375 -9.34375 1.859375 -14.1875 C 1.859375 -19.019531 3.097656 -22.671875 5.578125 -25.140625 C 8.066406 -27.617188 11.734375 -28.859375 16.578125 -28.859375 Z M 16.578125 -28.859375 "/></g></g></g></g></g><g clip-path="url(#673cc2c02d)"><g transform="matrix(1, 0, 0, 1, 1, -0.000000000000007105)"><g clip-path="url(#235672c3c9)"><g fill="#ffffff" fill-opacity="1"><g transform="translate(0.535725, 35.99892)"><g><path d="M 22.1875 0 L 22.1875 -10.765625 L 12.171875 -10.765625 L 12.171875 0 L 3.046875 0 L 3.046875 -28.375 L 12.171875 -28.375 L 12.171875 -18.015625 L 22.1875 -18.015625 L 22.1875 -28.375 L 31.296875 -28.375 L 31.296875 0 Z M 22.1875 0 "/></g></g></g></g></g></g></g></g></svg>