<svg xmlns="http://www.w3.org/2000/svg" xmlns:xlink="http://www.w3.org/1999/xlink" width="128" zoomAndPan="magnify" viewBox="0 37 96 15" height="20" preserveAspectRatio="xMidYMid meet" version="1.0"><defs><clipPath id="96414fc4c9"><path d="M 39 39.0625 L 45 39.0625 L 45 49 L 39 49 Z M 39 39.0625 " clip-rule="nonzero"/></clipPath><clipPath id="6a160c979d"><path d="M 67 39.0625 L 73 39.0625 L 73 49 L 67 49 Z M 67 39.0625 " clip-rule="nonzero"/></clipPath><clipPath id="5416844185"><path d="M 72 39.0625 L 83 39.0625 L 83 49 L 72 49 Z M 72 39.0625 " clip-rule="nonzero"/></clipPath><clipPath id="3e26e83d73"><path d="M 82 41 L 96 41 L 96 50.3125 L 82 50.3125 Z M 82 41 " clip-rule="nonzero"/></clipPath><clipPath id="773de38ccf"><path d="M 0 39.0625 L 31 39.0625 L 31 49 L 0 49 Z M 0 39.0625 " clip-rule="nonzero"/></clipPath></defs><path fill="#ffffff" d="M 28.355469 44.839844 C 28.355469 42.660156 30.996094 40.941406 34.296875 40.941406 C 37.128906 40.941406 39.460938 42.289062 39.460938 44.539062 C 39.460938 44.742188 39.433594 44.886719 39.410156 45.03125 L 31.570312 45.03125 C 31.691406 45.828125 32.527344 46.355469 33.757812 46.355469 C 34.726562 46.355469 35.515625 46.089844 35.945312 45.550781 L 39.195312 45.550781 C 38.3125 47.210938 36.160156 48.292969 33.507812 48.292969 C 30.566406 48.292969 28.355469 46.765625 28.355469 44.839844 Z M 31.871094 43.851562 L 36.246094 43.851562 C 35.957031 43.179688 35.074219 42.816406 34.117188 42.816406 C 33.160156 42.816406 32.324219 43.179688 31.871094 43.851562 Z M 31.871094 43.851562 " fill-opacity="1" fill-rule="nonzero"/><g clip-path="url(#96414fc4c9)"><path fill="#ffffff" d="M 41.289062 39.605469 L 44.660156 39.605469 L 42.878906 48.027344 L 39.507812 48.027344 Z M 41.289062 39.605469 " fill-opacity="1" fill-rule="nonzero"/></g><path fill="#ffffff" d="M 55.796875 44.347656 C 55.796875 46.765625 52.964844 48.292969 49.773438 48.292969 C 46.855469 48.292969 44.335938 47.042969 44.335938 44.886719 C 44.335938 42.46875 47.167969 40.941406 50.359375 40.941406 C 53.273438 40.941406 55.796875 42.191406 55.796875 44.347656 Z M 52.535156 44.441406 C 52.535156 43.5625 51.578125 42.988281 50.226562 43 C 48.792969 43 47.597656 43.707031 47.597656 44.792969 C 47.597656 45.671875 48.554688 46.246094 49.894531 46.246094 C 51.339844 46.234375 52.535156 45.527344 52.535156 44.441406 Z M 52.535156 44.441406 " fill-opacity="1" fill-rule="nonzero"/><path fill="#ffffff" d="M 56.453125 44.863281 C 56.453125 42.578125 59.09375 40.941406 62.441406 40.941406 C 65.464844 40.941406 67.617188 42.3125 67.710938 44.25 L 64.582031 44.25 C 64.4375 43.515625 63.53125 42.988281 62.324219 42.988281 C 60.804688 42.988281 59.71875 43.804688 59.71875 44.816406 C 59.71875 45.671875 60.578125 46.246094 61.976562 46.246094 C 63.039062 46.246094 64.101562 45.753906 64.4375 45.054688 L 67.59375 45.054688 C 66.898438 47.113281 64.726562 48.292969 61.761719 48.292969 C 58.796875 48.292969 56.453125 46.910156 56.453125 44.863281 Z M 56.453125 44.863281 " fill-opacity="1" fill-rule="nonzero"/><g clip-path="url(#6a160c979d)"><path fill="#ffffff" d="M 69.121094 41.207031 L 72.492188 41.207031 L 71.058594 48.027344 L 67.6875 48.027344 Z M 69.578125 39.0625 L 72.949219 39.0625 L 72.601562 40.664062 L 69.242188 40.664062 Z M 69.578125 39.0625 " fill-opacity="1" fill-rule="nonzero"/></g><g clip-path="url(#5416844185)"><path fill="#ffffff" d="M 73.210938 41.207031 L 76.03125 41.207031 L 76.355469 39.652344 L 79.652344 39.652344 L 79.328125 41.207031 L 82.796875 41.207031 L 82.390625 43.082031 L 78.933594 43.082031 L 78.492188 45.152344 C 78.480469 45.226562 78.46875 45.296875 78.46875 45.355469 C 78.46875 45.851562 78.886719 46.054688 79.554688 46.054688 L 81.753906 46.054688 L 81.347656 48.027344 L 77.488281 48.027344 C 75.898438 48.027344 75.039062 47.414062 75.039062 46.1875 C 75.039062 45.972656 75.0625 45.730469 75.121094 45.476562 L 75.625 43.082031 L 72.816406 43.082031 Z M 73.210938 41.207031 " fill-opacity="1" fill-rule="nonzero"/></g><g clip-path="url(#3e26e83d73)"><path fill="#ffffff" d="M 83.25 48.171875 L 85.269531 48.171875 C 85.652344 48.171875 85.949219 48.101562 86.25 47.882812 L 83 41.207031 L 86.464844 41.207031 L 88.390625 45.574219 L 91.902344 41.207031 L 95.464844 41.207031 L 89.273438 48.484375 C 88.328125 49.605469 87.335938 50.230469 85.832031 50.230469 L 82.832031 50.230469 Z M 83.25 48.171875 " fill-opacity="1" fill-rule="nonzero"/></g><g clip-path="url(#773de38ccf)"><path fill="#ffffff" d="M 4.917969 48.289062 L 20.425781 48.289062 C 21.800781 48.289062 23.113281 47.703125 24.035156 46.679688 L 30.882812 39.0625 L 13.046875 39.0625 L 10.269531 42.214844 L 7.484375 45.375 L 6.042969 42.214844 L 4.59375 39.0625 L 0.535156 39.0625 Z M 4.917969 48.289062 " fill-opacity="1" fill-rule="nonzero"/></g></svg>